<?xml version="1.0" encoding="UTF-8" standalone="no"?>
<!-- Created with Inkscape (http://www.inkscape.org/) -->

<svg
   width="1024"
   height="1024"
   viewBox="0 0 1024 1024"
   version="1.1"
   id="svg1"
   xmlns="http://www.w3.org/2000/svg"
   xmlns:svg="http://www.w3.org/2000/svg">
  <defs
     id="defs1" />
  <g
     id="layer1">
    <path
       d="m 357.07901,781.85206 c 18.99481,0 34.19066,-12.62466 34.19066,-28.40548 18.9948,0 34.19065,-12.62466 34.19065,-28.40549 -18.99481,0 -34.19065,12.62466 -34.19065,28.40549 -18.99481,0 -34.19066,12.62466 -34.19066,28.40548 z m 0,-28.40548 c 18.99481,0 34.19066,-12.62466 34.19066,-28.40549 18.9948,0 34.19065,-12.62466 34.19065,-28.40547 v -14.20274 c -18.99481,0 -34.19065,12.62466 -34.19065,28.40548 -18.99481,0 -34.19066,12.62465 -34.19066,28.40548 z m 0,-255.64931 c 18.99481,0 34.19066,-12.62466 34.19066,-28.40549 18.9948,0 34.19065,-12.62466 34.19065,-28.40548 -18.99481,0 -34.19065,12.62466 -34.19065,28.40548 -18.99481,0 -34.19066,12.62466 -34.19066,28.40549 z m 0,-28.40549 c 18.99481,0 34.19066,-12.62466 34.19066,-28.40548 18.9948,0 34.19065,-13.15068 34.19065,-28.40548 v -14.20274 c -18.99481,0 -34.19065,12.62466 -34.19065,28.40549 -18.99481,0 -34.19066,12.62466 -34.19066,28.40548 z m 0,-42.60821 c 18.99481,0 34.19066,-13.15069 34.19066,-28.40549 18.9948,0 34.19065,-13.15068 34.19065,-28.40548 v -28.93151 c -18.99481,0 -34.19065,13.15069 -34.19065,28.93151 -18.99481,0 -34.19066,12.62467 -34.19066,28.40548 z m 0,-56.81097 c 18.99481,0 34.19066,-13.15068 34.19066,-28.93151 18.9948,0 34.19065,-12.62465 34.19065,-28.40546 v -99.41919 c -18.99481,0 -34.19065,12.62465 -34.19065,28.40549 -18.99481,0 -34.19066,13.15067 -34.19066,28.40547 z m 136.76262,-71.53972 c 18.99481,0 34.19064,-12.62466 34.19064,-28.40548 18.99481,0 34.19066,-12.62466 34.19066,-28.40547 v -28.40549 c -18.36165,0 -34.19066,12.62465 -34.19066,28.40549 -18.36164,0 -34.19064,13.15067 -34.19064,28.40547 z M 288.69771,896 V 639.82466 c 18.99481,0 34.19066,-12.62466 34.19066,-28.40548 18.99481,0 34.19064,-12.62466 34.19064,-28.40548 18.99481,0 34.19066,-12.62466 34.19066,-28.40548 18.9948,0 34.19065,-12.62465 34.19065,-28.40548 v -28.40547 c -18.99481,0 -34.19065,12.62466 -34.19065,28.40547 -18.99481,0 -34.19066,12.62465 -34.19066,28.40548 -18.9948,0 -34.19064,12.62466 -34.19064,28.40548 -18.99481,0 -34.19066,12.62466 -34.19066,28.40548 V 326.83836 c -18.9948,0 -34.19065,13.15068 -34.19065,28.93151 v -28.93151 c 18.99481,0 34.19065,-12.62466 34.19065,-28.40548 18.99481,0 34.19066,-12.62466 34.19066,-28.40548 18.99481,0 34.19064,-12.62466 34.19064,-28.40547 18.99481,0 34.19066,-12.62466 34.19066,-28.40549 18.9948,0 34.19065,-12.62466 34.19065,-28.40548 18.99481,0 34.19065,-12.62466 34.19065,-28.40548 18.99481,0 34.19066,-12.62465 34.19066,-28.40548 v 113.62193 c 18.99481,0 34.19064,-12.62466 34.19064,-28.40549 18.99481,0 34.19066,-12.62466 34.19066,-28.40548 18.9948,0 34.19065,-12.62466 34.19065,-28.40548 18.99481,0 34.82381,-12.62465 34.82381,-28.40548 h 102.57196 c -18.99481,0 -34.19066,12.62466 -34.19066,28.40548 -18.99481,0 -34.19064,12.62466 -34.19064,28.40548 -18.99481,0 -34.19066,12.62467 -34.19066,28.40548 v 85.21644 c 18.36165,0 34.19066,-12.62466 34.19066,-28.40548 18.36164,0 34.19064,-12.62466 34.19064,-28.40547 v -56.81097 c 18.36165,0 34.19066,-12.62466 34.19066,-28.40548 C 752.80415,156.40548 768,143.78083 768,128 v 85.21644 c -18.99481,0 -34.19065,12.62465 -34.19065,28.40549 -18.99481,0 -34.19066,13.15067 -34.19066,28.40547 -18.99481,0 -34.19064,13.15068 -34.19064,28.40548 -18.99481,0 -34.19066,13.15069 -34.19066,28.40548 -18.9948,0 -34.82381,13.15068 -34.82381,28.93151 -18.36165,0 -34.19065,12.62466 -34.19065,28.40548 V 270.0274 c -18.36165,0 -34.19066,13.15068 -34.19066,28.40548 -18.36164,0 -34.19064,13.15069 -34.19064,28.40548 v 199.36438 c 18.99481,0 34.19064,-12.62466 34.19064,-28.40547 18.99481,0 34.19066,-12.62466 34.19066,-28.40549 18.9948,0 34.19065,-12.62466 34.19065,-28.40548 18.99481,0 34.82381,-13.15068 34.82381,-28.40548 v 85.21645 c -18.9948,0 -34.82381,12.62466 -34.82381,28.40547 -18.36165,0 -34.19065,12.62465 -34.19065,28.40548 v -56.81095 c -18.36165,0 -34.19066,12.62466 -34.19066,28.40547 -18.36164,0 -34.19064,12.62465 -34.19064,28.40548 -18.99481,0 -34.19066,12.62466 -34.19066,28.40548 -18.9948,0 -34.19065,12.62466 -34.19065,28.40548 -18.99481,0 -34.19065,12.62467 -34.19065,28.40548 -18.99481,0 -34.19066,12.62465 -34.19066,28.40548 v 42.60822 c 18.99481,0 34.19066,-12.62466 34.19066,-28.40548 18.9948,0 34.19065,-12.62466 34.19065,-28.40548 v -14.20274 c 18.99481,0 34.19065,-12.62466 34.19065,-28.40548 18.99481,0 34.19066,-12.62466 34.19066,-28.40548 v 113.62192 c 18.99481,0 34.19064,-12.62465 34.19064,-28.40548 18.99481,0 34.19066,-12.62466 34.19066,-28.40548 18.9948,0 34.19065,-12.62466 34.19065,-28.40548 18.99481,0 34.82381,-12.62466 34.82381,-28.40548 v 170.43288 c -18.9948,0 -34.82381,12.62466 -34.82381,28.40548 -18.36165,0 -34.19065,13.15068 -34.19065,28.40547 V 668.23014 c -18.36165,0 -34.19066,12.62465 -34.19066,28.40548 -18.36164,0 -34.19064,12.62466 -34.19064,28.40547 -18.99481,0 -34.19066,12.62466 -34.19066,28.40549 -18.9948,0 -34.19065,12.62466 -34.19065,28.40548 -18.99481,0 -34.19065,13.15068 -34.19065,28.40547 -18.99481,0 -34.19066,13.15069 -34.19066,28.40548 -18.9948,0 -34.19064,13.15069 -34.19064,28.40548 -18.99481,0 -34.19066,13.15069 -34.19066,28.93151 z"
       id="text14"
       style="font-size:1024px;font-family:Esworkied;-inkscape-font-specification:'Esworkied, Normal';fill:#333333;stroke-width:1.12718"
       aria-label="X" />
  </g>
</svg>
